<mxfile host="65bd71144e">
    <diagram id="ahew5Gd78WXoi2FdXDi9" name="Page-1">
        <mxGraphModel dx="1480" dy="839" grid="1" gridSize="10" guides="1" tooltips="1" connect="1" arrows="1" fold="1" page="1" pageScale="1" pageWidth="25000" pageHeight="25000" math="0" shadow="0">
            <root>
                <mxCell id="0"/>
                <mxCell id="1" style="locked=1;" parent="0"/>
                <object label="Cloud" id="15">
                    <mxCell style="locked=1;" parent="0"/>
                </object>
                <mxCell id="19" value="AWS Cloud" style="sketch=0;outlineConnect=0;gradientColor=none;html=1;whiteSpace=wrap;fontSize=12;fontStyle=0;shape=mxgraph.aws4.group;grIcon=mxgraph.aws4.group_aws_cloud;strokeColor=#AAB7B8;fillColor=none;verticalAlign=top;align=left;spacingLeft=30;fontColor=#AAB7B8;dashed=0;shadow=0;" vertex="1" parent="15">
                    <mxGeometry x="40" y="30" width="1190" height="700" as="geometry"/>
                </mxCell>
                <object label="VPC" id="14">
                    <mxCell style="locked=1;" parent="0"/>
                </object>
                <mxCell id="20" value="VPC" style="points=[[0,0],[0.25,0],[0.5,0],[0.75,0],[1,0],[1,0.25],[1,0.5],[1,0.75],[1,1],[0.75,1],[0.5,1],[0.25,1],[0,1],[0,0.75],[0,0.5],[0,0.25]];outlineConnect=0;gradientColor=none;html=1;whiteSpace=wrap;fontSize=12;fontStyle=0;container=1;pointerEvents=0;collapsible=0;recursiveResize=0;shape=mxgraph.aws4.group;grIcon=mxgraph.aws4.group_vpc;strokeColor=#248814;fillColor=none;verticalAlign=top;align=left;spacingLeft=30;fontColor=#AAB7B8;dashed=0;shadow=0;" vertex="1" parent="14">
                    <mxGeometry x="70" y="60" width="1140" height="640" as="geometry"/>
                </mxCell>
                <object label="Availability Zone" id="16">
                    <mxCell style="locked=1;" parent="0"/>
                </object>
                <mxCell id="24" value="Availability Zone" style="fillColor=none;strokeColor=#147EBA;dashed=1;verticalAlign=top;fontStyle=0;fontColor=#147EBA;shadow=0;" vertex="1" parent="16">
                    <mxGeometry x="220" y="120" width="300" height="530" as="geometry"/>
                </mxCell>
                <mxCell id="25" value="Availability Zone" style="fillColor=none;strokeColor=#147EBA;dashed=1;verticalAlign=top;fontStyle=0;fontColor=#147EBA;shadow=0;" vertex="1" parent="16">
                    <mxGeometry x="780" y="120" width="300" height="530" as="geometry"/>
                </mxCell>
                <object label="Security Group" id="22">
                    <mxCell style="locked=1;" parent="0"/>
                </object>
                <mxCell id="37" value="" style="rounded=0;whiteSpace=wrap;html=1;shadow=0;strokeColor=#FF3333;fillColor=none;gradientColor=#0008F7;" vertex="1" parent="22">
                    <mxGeometry x="230" y="160" width="280" height="270" as="geometry"/>
                </mxCell>
                <mxCell id="39" value="Security Group" style="text;html=1;align=center;verticalAlign=middle;whiteSpace=wrap;rounded=0;shadow=0;fontSize=10;fontColor=#FF0000;" vertex="1" parent="22">
                    <mxGeometry x="230" y="140" width="80" height="20" as="geometry"/>
                </mxCell>
                <mxCell id="40" value="" style="rounded=0;whiteSpace=wrap;html=1;shadow=0;strokeColor=#FF3333;fillColor=none;gradientColor=#0008F7;" vertex="1" parent="22">
                    <mxGeometry x="230" y="480" width="280" height="160" as="geometry"/>
                </mxCell>
                <mxCell id="41" value="Security Group" style="text;html=1;align=center;verticalAlign=middle;whiteSpace=wrap;rounded=0;shadow=0;fontSize=10;fontColor=#FF0000;" vertex="1" parent="22">
                    <mxGeometry x="230" y="460" width="80" height="20" as="geometry"/>
                </mxCell>
                <object label="Lambda" id="21">
                    <mxCell style="locked=1;" parent="0"/>
                </object>
                <mxCell id="26" value="" style="rounded=1;whiteSpace=wrap;html=1;shadow=0;strokeColor=#FFFFFF;fillColor=default;" vertex="1" parent="21">
                    <mxGeometry x="280" y="220" width="180" height="60" as="geometry"/>
                </mxCell>
                <mxCell id="28" value="" style="rounded=1;whiteSpace=wrap;html=1;shadow=0;strokeColor=#FFFFFF;fillColor=default;" vertex="1" parent="21">
                    <mxGeometry x="280" y="320" width="180" height="60" as="geometry"/>
                </mxCell>
                <mxCell id="29" value="" style="rounded=0;whiteSpace=wrap;html=1;shadow=0;strokeColor=#FFFFFF;fillColor=none;" vertex="1" parent="21">
                    <mxGeometry x="240" y="180" width="260" height="230" as="geometry"/>
                </mxCell>
                <mxCell id="32" value="" style="sketch=0;points=[[0,0,0],[0.25,0,0],[0.5,0,0],[0.75,0,0],[1,0,0],[0,1,0],[0.25,1,0],[0.5,1,0],[0.75,1,0],[1,1,0],[0,0.25,0],[0,0.5,0],[0,0.75,0],[1,0.25,0],[1,0.5,0],[1,0.75,0]];outlineConnect=0;fontColor=#232F3E;gradientColor=#0008F7;gradientDirection=north;fillColor=#001CD0;strokeColor=#ffffff;dashed=0;verticalLabelPosition=bottom;verticalAlign=top;align=center;html=1;fontSize=12;fontStyle=0;aspect=fixed;shape=mxgraph.aws4.resourceIcon;resIcon=mxgraph.aws4.lambda;shadow=0;" vertex="1" parent="21">
                    <mxGeometry x="240" y="180" width="30" height="30" as="geometry"/>
                </mxCell>
                <mxCell id="34" value="&amp;nbsp;Application Server" style="text;html=1;strokeColor=none;fillColor=none;align=center;verticalAlign=middle;whiteSpace=wrap;rounded=0;shadow=0;" vertex="1" parent="21">
                    <mxGeometry x="300" y="235" width="140" height="30" as="geometry"/>
                </mxCell>
                <mxCell id="35" value="Web Server" style="text;html=1;strokeColor=none;fillColor=none;align=center;verticalAlign=middle;whiteSpace=wrap;rounded=0;shadow=0;" vertex="1" parent="21">
                    <mxGeometry x="320" y="335" width="110" height="30" as="geometry"/>
                </mxCell>
                <object label="Database" id="42">
                    <mxCell style="locked=1;" parent="0"/>
                </object>
                <mxCell id="47" value="" style="rounded=1;whiteSpace=wrap;html=1;shadow=0;strokeColor=#FFFFFF;fontSize=10;fontColor=#FFFFFF;fillColor=none;gradientColor=#0008F7;" vertex="1" parent="42">
                    <mxGeometry x="260" y="520" width="220" height="100" as="geometry"/>
                </mxCell>
                <mxCell id="50" value="" style="sketch=0;outlineConnect=0;fontColor=#232F3E;gradientColor=none;fillColor=#2E27AD;strokeColor=none;dashed=0;verticalLabelPosition=bottom;verticalAlign=top;align=center;html=1;fontSize=12;fontStyle=0;aspect=fixed;pointerEvents=1;shape=mxgraph.aws4.aurora_instance;shadow=0;" vertex="1" parent="42">
                    <mxGeometry x="330" y="535.5" width="69" height="69" as="geometry"/>
                </mxCell>
                <mxCell id="23" value="arrow" style="locked=1;" parent="0"/>
                <mxCell id="51" value="" style="endArrow=classic;html=1;fontSize=10;fontColor=#FFFFFF;" edge="1" parent="23">
                    <mxGeometry width="50" height="50" relative="1" as="geometry">
                        <mxPoint x="370" y="430" as="sourcePoint"/>
                        <mxPoint x="370" y="480" as="targetPoint"/>
                        <Array as="points">
                            <mxPoint x="370" y="460"/>
                        </Array>
                    </mxGeometry>
                </mxCell>
                <mxCell id="59" value="" style="rounded=0;whiteSpace=wrap;html=1;shadow=0;strokeColor=#FF3333;fillColor=none;gradientColor=#0008F7;" vertex="1" parent="23">
                    <mxGeometry x="790" y="160" width="280" height="270" as="geometry"/>
                </mxCell>
                <mxCell id="60" value="" style="rounded=0;whiteSpace=wrap;html=1;shadow=0;strokeColor=#FF3333;fillColor=none;gradientColor=#0008F7;" vertex="1" parent="23">
                    <mxGeometry x="790" y="480" width="280" height="160" as="geometry"/>
                </mxCell>
                <mxCell id="61" value="Security Group" style="text;html=1;align=center;verticalAlign=middle;whiteSpace=wrap;rounded=0;shadow=0;fontSize=10;fontColor=#FF0000;" vertex="1" parent="23">
                    <mxGeometry x="790" y="460" width="80" height="20" as="geometry"/>
                </mxCell>
                <mxCell id="62" value="" style="rounded=1;whiteSpace=wrap;html=1;shadow=0;strokeColor=#FFFFFF;fillColor=default;" vertex="1" parent="23">
                    <mxGeometry x="840" y="220" width="180" height="60" as="geometry"/>
                </mxCell>
                <mxCell id="63" value="" style="rounded=1;whiteSpace=wrap;html=1;shadow=0;strokeColor=#FFFFFF;fillColor=default;" vertex="1" parent="23">
                    <mxGeometry x="840" y="320" width="180" height="60" as="geometry"/>
                </mxCell>
                <mxCell id="64" value="" style="rounded=0;whiteSpace=wrap;html=1;shadow=0;strokeColor=#FFFFFF;fillColor=none;" vertex="1" parent="23">
                    <mxGeometry x="800" y="180" width="260" height="230" as="geometry"/>
                </mxCell>
                <mxCell id="65" value="" style="sketch=0;points=[[0,0,0],[0.25,0,0],[0.5,0,0],[0.75,0,0],[1,0,0],[0,1,0],[0.25,1,0],[0.5,1,0],[0.75,1,0],[1,1,0],[0,0.25,0],[0,0.5,0],[0,0.75,0],[1,0.25,0],[1,0.5,0],[1,0.75,0]];outlineConnect=0;fontColor=#232F3E;gradientColor=#0008F7;gradientDirection=north;fillColor=#001CD0;strokeColor=#ffffff;dashed=0;verticalLabelPosition=bottom;verticalAlign=top;align=center;html=1;fontSize=12;fontStyle=0;aspect=fixed;shape=mxgraph.aws4.resourceIcon;resIcon=mxgraph.aws4.lambda;shadow=0;" vertex="1" parent="23">
                    <mxGeometry x="800" y="180" width="30" height="30" as="geometry"/>
                </mxCell>
                <mxCell id="66" value="&amp;nbsp;Application Server" style="text;html=1;strokeColor=none;fillColor=none;align=center;verticalAlign=middle;whiteSpace=wrap;rounded=0;shadow=0;" vertex="1" parent="23">
                    <mxGeometry x="860" y="235" width="140" height="30" as="geometry"/>
                </mxCell>
                <mxCell id="67" value="Web Server" style="text;html=1;strokeColor=none;fillColor=none;align=center;verticalAlign=middle;whiteSpace=wrap;rounded=0;shadow=0;" vertex="1" parent="23">
                    <mxGeometry x="880" y="335" width="110" height="30" as="geometry"/>
                </mxCell>
                <mxCell id="68" value="" style="rounded=1;whiteSpace=wrap;html=1;shadow=0;strokeColor=#FFFFFF;fontSize=10;fontColor=#FFFFFF;fillColor=none;gradientColor=#0008F7;" vertex="1" parent="23">
                    <mxGeometry x="820" y="520" width="220" height="100" as="geometry"/>
                </mxCell>
                <mxCell id="69" value="" style="sketch=0;outlineConnect=0;fontColor=#232F3E;gradientColor=none;fillColor=#2E27AD;strokeColor=none;dashed=0;verticalLabelPosition=bottom;verticalAlign=top;align=center;html=1;fontSize=12;fontStyle=0;aspect=fixed;pointerEvents=1;shape=mxgraph.aws4.aurora_instance;shadow=0;" vertex="1" parent="23">
                    <mxGeometry x="890" y="535.5" width="69" height="69" as="geometry"/>
                </mxCell>
                <mxCell id="70" value="" style="endArrow=classic;html=1;fontSize=10;fontColor=#FFFFFF;" edge="1" parent="23">
                    <mxGeometry width="50" height="50" relative="1" as="geometry">
                        <mxPoint x="930" y="429.9999999999999" as="sourcePoint"/>
                        <mxPoint x="930" y="480" as="targetPoint"/>
                        <Array as="points">
                            <mxPoint x="930" y="460"/>
                        </Array>
                    </mxGeometry>
                </mxCell>
                <mxCell id="43" value="Untitled Layer" style="locked=1;" parent="0"/>
                <mxCell id="73" style="edgeStyle=none;html=1;entryX=0;entryY=0.16;entryDx=0;entryDy=0;entryPerimeter=0;fontSize=10;fontColor=#FFFFFF;" edge="1" parent="43" source="71" target="25">
                    <mxGeometry relative="1" as="geometry"/>
                </mxCell>
                <mxCell id="74" style="edgeStyle=none;html=1;entryX=1.004;entryY=0.163;entryDx=0;entryDy=0;entryPerimeter=0;fontSize=10;fontColor=#FFFFFF;" edge="1" parent="43" source="71" target="24">
                    <mxGeometry relative="1" as="geometry"/>
                </mxCell>
                <mxCell id="71" value="" style="sketch=0;points=[[0,0,0],[0.25,0,0],[0.5,0,0],[0.75,0,0],[1,0,0],[0,1,0],[0.25,1,0],[0.5,1,0],[0.75,1,0],[1,1,0],[0,0.25,0],[0,0.5,0],[0,0.75,0],[1,0.25,0],[1,0.5,0],[1,0.75,0]];outlineConnect=0;fontColor=#232F3E;gradientColor=#4D72F3;gradientDirection=north;fillColor=#3334B9;strokeColor=#ffffff;dashed=0;verticalLabelPosition=bottom;verticalAlign=top;align=center;html=1;fontSize=12;fontStyle=0;aspect=fixed;shape=mxgraph.aws4.resourceIcon;resIcon=mxgraph.aws4.elasticache;shadow=0;" vertex="1" parent="43">
                    <mxGeometry x="620" y="180" width="50" height="50" as="geometry"/>
                </mxCell>
                <mxCell id="76" style="edgeStyle=none;html=1;fontSize=10;fontColor=#FFFFFF;" edge="1" parent="43" source="75" target="71">
                    <mxGeometry relative="1" as="geometry"/>
                </mxCell>
                <mxCell id="75" value="" style="sketch=0;points=[[0,0,0],[0.25,0,0],[0.5,0,0],[0.75,0,0],[1,0,0],[0,1,0],[0.25,1,0],[0.5,1,0],[0.75,1,0],[1,1,0],[0,0.25,0],[0,0.5,0],[0,0.75,0],[1,0.25,0],[1,0.5,0],[1,0.75,0]];outlineConnect=0;fontColor=#232F3E;gradientColor=#945DF2;gradientDirection=north;fillColor=#5A30B5;strokeColor=#ffffff;dashed=0;verticalLabelPosition=bottom;verticalAlign=top;align=center;html=1;fontSize=12;fontStyle=0;aspect=fixed;shape=mxgraph.aws4.resourceIcon;resIcon=mxgraph.aws4.api_gateway;shadow=0;" vertex="1" parent="43">
                    <mxGeometry x="623" y="40" width="44" height="44" as="geometry"/>
                </mxCell>
            </root>
        </mxGraphModel>
    </diagram>
</mxfile>